HIERARCHY
ROOT Hips
{
  OFFSET 57.8838 95.319 338.509
  CHANNELS 6 Xposition Yposition Zposition Zrotation Xrotation Yrotation
  JOINT LeftUpLeg
  {
    OFFSET 8.64259 1.95398 -2.38835
    CHANNELS 3 Zrotation Xrotation Yrotation
    JOINT LeftLeg
    {
      OFFSET 43.7702 0 0
      CHANNELS 3 Zrotation Xrotation Yrotation
      JOINT LeftFoot
      {
        OFFSET 40.6238 0 0
        CHANNELS 3 Zrotation Xrotation Yrotation
        JOINT LeftToeBase
        {
          OFFSET 12.7242 0 0
          CHANNELS 3 Zrotation Xrotation Yrotation
          End Site
          {
            OFFSET 0 0 0
          }
        }
      }
    }
  }
  JOINT RightUpLeg
  {
    OFFSET -8.2249 1.95398 -2.59336
    CHANNELS 3 Zrotation Xrotation Yrotation
    JOINT RightLeg
    {
      OFFSET 43.5653 0 0
      CHANNELS 3 Zrotation Xrotation Yrotation
      JOINT RightFoot
      {
        OFFSET 40.6238 0 0
        CHANNELS 3 Zrotation Xrotation Yrotation
        JOINT RightToeBase
        {
          OFFSET 12.7242 0 0
          CHANNELS 3 Zrotation Xrotation Yrotation
          End Site
          {
            OFFSET 0 0 0
          }
        }
      }
    }
  }
  JOINT Spine
  {
    OFFSET 0.165834 0.87714 6.61349
    CHANNELS 3 Zrotation Xrotation Yrotation
    JOINT Spine1
    {
      OFFSET 7.38963 1.71661e-005 0
      CHANNELS 3 Zrotation Xrotation Yrotation
      JOINT Spine2
      {
        OFFSET 11.9445 1.14441e-005 0
        CHANNELS 3 Zrotation Xrotation Yrotation
        JOINT Spine3
        {
          OFFSET 14.7254 4.19617e-005 0
          CHANNELS 3 Zrotation Xrotation Yrotation
          JOINT Spine4
          {
            OFFSET 10.9679 0 0
            CHANNELS 3 Zrotation Xrotation Yrotation
            JOINT RightShoulder
            {
              OFFSET 2.46616 -1.6653 3.69651
              CHANNELS 3 Zrotation Xrotation Yrotation
              JOINT RightArm
              {
                OFFSET 13.0012 0 0
                CHANNELS 3 Zrotation Xrotation Yrotation
                JOINT RightForeArm
                {
                  OFFSET 28.7848 1.62311e-005 0
                  CHANNELS 3 Zrotation Xrotation Yrotation
                  JOINT RightHand
                  {
                    OFFSET 26.5688 1.62095e-005 0
                    CHANNELS 3 Zrotation Xrotation Yrotation
                    End Site
                    {
                      OFFSET 0 0 0
                    }
                  }
                }
              }
            }
            JOINT LeftShoulder
            {
              OFFSET 2.38034 -1.29275 -3.7523
              CHANNELS 3 Zrotation Xrotation Yrotation
              JOINT LeftArm
              {
                OFFSET 16.3182 6.07031e-005 0
                CHANNELS 3 Zrotation Xrotation Yrotation
                JOINT LeftForeArm
                {
                  OFFSET 27.0901 0 0
                  CHANNELS 3 Zrotation Xrotation Yrotation
                  JOINT LeftHand
                  {
                    OFFSET 24.5451 1.51738e-005 0
                    CHANNELS 3 Zrotation Xrotation Yrotation
                    End Site
                    {
                      OFFSET 0 0 0
                    }
                  }
                }
              }
            }
            JOINT Neck
            {
              OFFSET 5.0226 -0.0266342 0
              CHANNELS 3 Zrotation Xrotation Yrotation
              JOINT Head
              {
                OFFSET 6.69364 2.86102e-005 0
                CHANNELS 3 Zrotation Xrotation Yrotation
                End Site
                {
                  OFFSET 0 0 0
                }
              }
            }
          }
        }
      }
    }
  }
}
MOTION
Frames:	6
Frame Time:	0.0416667
36.9222 88.0246 -316.599 -32.5665 -69.264 -26.6659 155.181 -14.3176 47.5501 -115.23 -7.93752 86.4691 -36.4672 -4.42506 -16.6315 8.65366 -25.8963 50.1687 162.744 58.7455 116.536 -43.6197 13.4928 1.46293 54.7798 28.8828 51.7297 25.9826 -10.5242 -129.384 1.79076 8.01623 -90.122 10.8543 3.5093 -0.571108 -0.812068 3.48075 -0.725212 -23.385 3.51849 0.511327 -3.37232 3.51849 0.511313 94.7556 -40.7535 -94.9869 36.0423 2.4274 11.5027 40.7938 -9.47933 -111.442 75.8285 52.8932 59.4789 50.3566 -86.0566 -132.847 -121.016 35.5604 -115.932 -111.982 25.4469 179.911 26.5223 -0.634752 -10.8418 135.989 13.6925 -7.00603 -115.938 11.8754 5.70316 
36.8636 87.9475 -317.372 -32.3512 -69.194 -26.615 155.514 -14.763 46.9721 -114.587 -7.96017 86.5654 -37.3108 -4.66772 -16.1252 8.94639 -25.5349 50.0798 162.996 58.9931 116.261 -42.949 15.4683 1.16548 52.9032 29.8945 54.1995 26.2221 -9.87227 -130.644 1.7768 8.01012 -90.0964 10.8657 3.49326 -0.519322 -0.800728 3.46701 -0.67275 -23.3732 3.48762 0.555866 -3.36052 3.48763 0.555862 94.7772 -40.5007 -94.9947 36.657 2.22273 12.0705 40.148 -9.58032 -111.984 74.571 52.743 60.4843 54.0841 -86.0368 -129.205 -124.671 37.4324 -114.097 -110.648 17.6396 179.719 26.9131 -0.845879 -10.5587 136.046 13.8257 -7.17635 -116.122 11.7343 6.01276 
36.6814 87.6848 -319.729 -31.6966 -68.9819 -26.4732 156.439 -16.1885 45.2634 -112.48 -7.90689 86.9298 -39.8757 -5.49953 -14.4831 9.86419 -24.3891 49.7582 163.88 59.6209 115.425 -40.5317 21.5197 0.162223 46.5325 32.4786 61.5217 26.0739 -9.69244 -133.507 1.73342 7.99168 -90.0174 10.9 3.4432 -0.359046 -0.766467 3.42404 -0.510431 -23.3374 3.39172 0.693607 -3.32477 3.39173 0.693604 94.8428 -39.7318 -95.0184 38.5698 1.61154 13.8059 38.2859 -9.86642 -113.627 71.0512 52.3218 63.3772 64.9223 -85.8823 -118.624 -136.175 42.1188 -107.436 -108.85 -1.25021 -178.301 27.9421 -1.42919 -9.72098 136.223 14.2291 -7.68935 -116.675 11.3171 6.93346 
36.3822 87.2055 -323.45 -30.6651 -68.6477 -26.2867 157.614 -18.591 42.7727 -108.724 -7.37322 87.6926 -43.863 -7.13618 -11.5475 11.3925 -22.437 49.0578 165.57 60.2322 113.919 -35.6103 30.8148 -1.5518 35.4282 34.7388 71.6555 23.3476 -13.7234 -136.314 1.66233 7.96258 -89.8893 10.954 3.36072 -0.0988199 -0.712646 3.35311 -0.246805 -23.2809 3.23488 0.916857 -3.26825 3.23487 0.916868 94.9459 -38.5223 -95.0569 41.7081 0.692324 16.5498 35.5682 -10.2301 -116.196 66.3213 51.747 67.4573 79.4947 -85.3962 -104.452 -154.448 46.2483 -94.9572 -106.413 -9.53714 -168.253 29.1979 -1.41282 -9.04506 136.506 14.8574 -8.47924 -117.528 10.6985 8.31682 
35.958 86.4947 -328.384 -28.4428 -67.7616 -25.7084 158.233 -21.1374 39.7287 -103.131 -5.57972 88.8794 -48.9301 -9.97467 -7.17834 13.5787 -19.5557 47.623 168.391 60.9904 111.01 -27.2561 42.0085 -4.17175 21.6403 34.7482 80.5841 16.357 -23.8235 -138.971 1.54706 7.86759 -89.671 11.1287 3.23204 0.36145 -0.538337 3.24483 0.218682 -23.1006 2.97388 1.31692 -3.08794 2.97387 1.31691 95.0809 -36.9356 -95.1091 46.0608 -0.424082 20.153 32.1915 -10.4865 -119.54 61.289 51.1111 72.0585 93.4945 -84.453 -90.9712 -175.052 46.6761 -79.2657 -102.485 -14.9566 -156.13 30.5003 -1.34204 -8.60998 136.718 15.7735 -9.49193 -119.449 9.83255 10.1025 
35.6697 85.8996 -333.938 -50.2704 -76.0721 -37.778 170.903 -40.7542 48.3816 -98.9808 -2.97298 89.8031 -55.9781 -23.0596 4.1298 16.3752 -15.9179 45.497 172.166 46.2618 118.024 -4.05911 60.3332 -10.6254 9.86787 32.1391 79.8158 4.51239 -38.644 -142.903 1.84243 8.9475 -90.6118 9.12519 3.4077 -1.72675 -2.54105 3.32834 -1.87517 -25.1213 3.76894 -0.62159 -5.1087 3.76894 -0.621614 95.242 -35.0398 -95.1741 51.6063 -1.60626 24.4271 28.2297 -10.3679 -123.471 56.5953 50.4899 76.6239 104.474 -83.0853 -80.6002 168.716 43.5458 -65.9114 -98.0114 -17.99 -144.86 31.8977 -1.37323 -8.52833 136.565 17.1367 -10.6668 -123.905 8.57577 12.2692 
